<svg width="1512" height="134" viewBox="0 0 1512 134" fill="none" xmlns="http://www.w3.org/2000/svg">
<g filter="url(#filter0_d_206_4)">
<rect y="15" width="1513" height="88" fill="white"/>
</g>
<path d="M167.528 73.404C164.866 74.1086 161.399 74.4573 158.384 74.4573C150.646 74.4573 145.522 70.3394 145.522 62.8026C145.522 55.6696 150.295 51.0491 157.279 51.0491C158.836 51.0491 160.493 51.2472 161.499 51.7514V41.3972H167.528V73.404ZM161.499 57.0759C160.544 56.6239 159.289 56.3726 157.779 56.3726C154.114 56.3726 151.651 58.6344 151.651 62.6026C151.651 66.8739 154.313 69.2862 158.584 69.2862C159.338 69.2862 160.493 69.2345 161.499 69.0348V57.0759ZM217 73.404C214.335 74.1086 210.869 74.4573 207.854 74.4573C200.118 74.4573 194.991 70.3394 194.991 62.8026C194.991 55.6696 199.766 51.0491 206.75 51.0491C208.308 51.0491 209.966 51.2472 210.971 51.7514V41.3972H216.999V73.404H217ZM210.971 57.0759C210.015 56.6239 208.759 56.3726 207.252 56.3726C203.585 56.3726 201.123 58.6344 201.123 62.6026C201.123 66.8739 203.785 69.2862 208.056 69.2862C208.809 69.2862 209.965 69.2345 210.971 69.0348V57.0759ZM177.009 57.0265C178.013 56.6236 179.418 56.4743 180.623 56.4743C184.342 56.4743 186.905 58.634 186.905 62.5012C186.905 67.0631 184.066 69.1261 180.271 69.1794V74.4541C180.371 74.4541 180.472 74.4576 180.575 74.4576C188.361 74.4576 193.035 70.0884 193.035 62.3012C193.035 55.2173 188.061 51.0491 180.725 51.0491C177.009 51.0491 173.339 51.9032 170.928 52.907V83.0026H177.009V57.0265Z" fill="#414042"/>
<path d="M112.802 55.5486C112.552 55.694 112.161 55.6826 111.918 55.5321L110.484 54.6801C110.368 54.6079 110.261 54.4922 110.18 54.353C110.175 54.3451 110.17 54.3369 110.166 54.3286C110.074 54.1793 110.022 54.0218 110.017 53.8773L109.98 52.2063C109.969 51.9249 110.155 51.5816 110.406 51.4355L127.636 41.3976L103.457 28.2197C103.191 28.072 102.84 28.0006 102.488 28C102.136 27.9994 101.784 28.0726 101.518 28.2197L77.3388 41.3979L104.426 57.1663C104.677 57.3035 104.867 57.6294 104.867 57.9235V80.9266C104.867 81.2154 104.661 81.5472 104.408 81.6823L102.95 82.4918C102.829 82.5561 102.675 82.5906 102.514 82.5906C102.505 82.5906 102.495 82.5906 102.486 82.5906C102.311 82.5948 102.149 82.5602 102.021 82.4918L100.559 81.6819C100.31 81.5498 100.107 81.2163 100.107 80.9266L100.107 60.4204C100.094 60.2702 99.9844 60.087 99.864 60.0179L76 46.1262V73.336C75.9997 73.9448 76.4292 74.696 76.9553 75.0038L101.533 89.4986C101.796 89.6527 102.142 89.7294 102.487 89.7281C102.834 89.7271 103.18 89.6549 103.442 89.4989L128.023 75.0038C128.547 74.6928 128.975 73.9458 128.975 73.336V46.1265L112.802 55.5486Z" fill="url(#paint0_linear_206_4)"/>
<path d="M639.528 73.404C636.866 74.1086 633.399 74.4573 630.384 74.4573C622.646 74.4573 617.522 70.3394 617.522 62.8026C617.522 55.6696 622.295 51.0491 629.279 51.0491C630.836 51.0491 632.493 51.2472 633.499 51.7514V41.3972H639.528V73.404ZM633.499 57.0759C632.544 56.6239 631.289 56.3726 629.779 56.3726C626.114 56.3726 623.651 58.6344 623.651 62.6026C623.651 66.8739 626.313 69.2862 630.584 69.2862C631.338 69.2862 632.493 69.2345 633.499 69.0348V57.0759ZM689 73.404C686.335 74.1086 682.869 74.4573 679.854 74.4573C672.118 74.4573 666.991 70.3394 666.991 62.8026C666.991 55.6696 671.766 51.0491 678.75 51.0491C680.308 51.0491 681.966 51.2472 682.971 51.7514V41.3972H688.999V73.404H689ZM682.971 57.0759C682.015 56.6239 680.759 56.3726 679.252 56.3726C675.585 56.3726 673.123 58.6344 673.123 62.6026C673.123 66.8739 675.785 69.2862 680.056 69.2862C680.809 69.2862 681.965 69.2345 682.971 69.0348V57.0759ZM649.009 57.0265C650.013 56.6236 651.418 56.4743 652.623 56.4743C656.342 56.4743 658.905 58.634 658.905 62.5012C658.905 67.0631 656.066 69.1261 652.271 69.1794V74.4541C652.371 74.4541 652.472 74.4576 652.575 74.4576C660.361 74.4576 665.035 70.0884 665.035 62.3012C665.035 55.2173 660.061 51.0491 652.725 51.0491C649.009 51.0491 645.339 51.9032 642.928 52.907V83.0026H649.009V57.0265Z" fill="#414042"/>
<path d="M584.802 55.5486C584.552 55.694 584.161 55.6826 583.918 55.5321L582.484 54.6801C582.368 54.6079 582.261 54.4922 582.18 54.353C582.175 54.3451 582.17 54.3369 582.166 54.3286C582.074 54.1793 582.022 54.0218 582.017 53.8773L581.98 52.2063C581.969 51.9249 582.155 51.5816 582.406 51.4355L599.636 41.3976L575.457 28.2197C575.191 28.072 574.84 28.0006 574.488 28C574.136 27.9994 573.784 28.0726 573.518 28.2197L549.339 41.3979L576.426 57.1663C576.677 57.3035 576.867 57.6294 576.867 57.9235V80.9266C576.867 81.2154 576.661 81.5472 576.408 81.6823L574.95 82.4918C574.829 82.5561 574.675 82.5906 574.514 82.5906C574.505 82.5906 574.495 82.5906 574.486 82.5906C574.311 82.5948 574.149 82.5602 574.021 82.4918L572.559 81.6819C572.31 81.5498 572.107 81.2163 572.107 80.9266L572.107 60.4204C572.094 60.2702 571.984 60.087 571.864 60.0179L548 46.1262V73.336C548 73.9448 548.429 74.696 548.955 75.0038L573.533 89.4986C573.796 89.6527 574.142 89.7294 574.487 89.7281C574.834 89.7271 575.18 89.6549 575.442 89.4989L600.023 75.0038C600.547 74.6928 600.975 73.9458 600.975 73.336V46.1265L584.802 55.5486Z" fill="url(#paint1_linear_206_4)"/>
<path d="M1111.53 73.404C1108.87 74.1086 1105.4 74.4573 1102.38 74.4573C1094.65 74.4573 1089.52 70.3394 1089.52 62.8026C1089.52 55.6696 1094.29 51.0491 1101.28 51.0491C1102.84 51.0491 1104.49 51.2472 1105.5 51.7514V41.3972H1111.53V73.404ZM1105.5 57.0759C1104.54 56.6239 1103.29 56.3726 1101.78 56.3726C1098.11 56.3726 1095.65 58.6344 1095.65 62.6026C1095.65 66.8739 1098.31 69.2862 1102.58 69.2862C1103.34 69.2862 1104.49 69.2345 1105.5 69.0348V57.0759ZM1161 73.404C1158.34 74.1086 1154.87 74.4573 1151.85 74.4573C1144.12 74.4573 1138.99 70.3394 1138.99 62.8026C1138.99 55.6696 1143.77 51.0491 1150.75 51.0491C1152.31 51.0491 1153.97 51.2472 1154.97 51.7514V41.3972H1161V73.404H1161ZM1154.97 57.0759C1154.01 56.6239 1152.76 56.3726 1151.25 56.3726C1147.58 56.3726 1145.12 58.6344 1145.12 62.6026C1145.12 66.8739 1147.79 69.2862 1152.06 69.2862C1152.81 69.2862 1153.97 69.2345 1154.97 69.0348V57.0759ZM1121.01 57.0265C1122.01 56.6236 1123.42 56.4743 1124.62 56.4743C1128.34 56.4743 1130.9 58.634 1130.9 62.5012C1130.9 67.0631 1128.07 69.1261 1124.27 69.1794V74.4541C1124.37 74.4541 1124.47 74.4576 1124.57 74.4576C1132.36 74.4576 1137.03 70.0884 1137.03 62.3012C1137.03 55.2173 1132.06 51.0491 1124.73 51.0491C1121.01 51.0491 1117.34 51.9032 1114.93 52.907V83.0026H1121.01V57.0265Z" fill="#414042"/>
<path d="M1056.8 55.5486C1056.55 55.694 1056.16 55.6826 1055.92 55.5321L1054.48 54.6801C1054.37 54.6079 1054.26 54.4922 1054.18 54.353C1054.18 54.3451 1054.17 54.3369 1054.17 54.3286C1054.07 54.1793 1054.02 54.0218 1054.02 53.8773L1053.98 52.2063C1053.97 51.9249 1054.16 51.5816 1054.41 51.4355L1071.64 41.3976L1047.46 28.2197C1047.19 28.072 1046.84 28.0006 1046.49 28C1046.14 27.9994 1045.78 28.0726 1045.52 28.2197L1021.34 41.3979L1048.43 57.1663C1048.68 57.3035 1048.87 57.6294 1048.87 57.9235V80.9266C1048.87 81.2154 1048.66 81.5472 1048.41 81.6823L1046.95 82.4918C1046.83 82.5561 1046.68 82.5906 1046.51 82.5906C1046.5 82.5906 1046.5 82.5906 1046.49 82.5906C1046.31 82.5948 1046.15 82.5602 1046.02 82.4918L1044.56 81.6819C1044.31 81.5498 1044.11 81.2163 1044.11 80.9266L1044.11 60.4204C1044.09 60.2702 1043.98 60.087 1043.86 60.0179L1020 46.1262V73.336C1020 73.9448 1020.43 74.696 1020.96 75.0038L1045.53 89.4986C1045.8 89.6527 1046.14 89.7294 1046.49 89.7281C1046.83 89.7271 1047.18 89.6549 1047.44 89.4989L1072.02 75.0038C1072.55 74.6928 1072.98 73.9458 1072.97 73.336V46.1265L1056.8 55.5486Z" fill="url(#paint2_linear_206_4)"/>
<path d="M272 72.687H298.836L297.294 74.8462H272V72.687Z" fill="#D40511"/>
<path d="M493.32 74.8462H460.469L462.165 72.687H493.474V74.8462H493.32Z" fill="#D40511"/>
<path d="M272 68.6765H301.92L300.224 70.8357H272V68.6765Z" fill="#D40511"/>
<path d="M272 64.6665H305.005L303.308 66.8257H272V64.6665Z" fill="#D40511"/>
<path d="M493.319 70.8357H463.553L465.249 68.6765H493.473V70.8357H493.319Z" fill="#D40511"/>
<path d="M468.179 64.6665H493.318V66.8257H466.482L468.179 64.6665Z" fill="#D40511"/>
<path d="M300.994 74.8456L315.183 55.8755H332.765C334.77 55.8755 334.77 56.6466 333.691 57.8805C332.765 59.1143 331.069 61.4277 330.143 62.6616C329.681 63.4327 328.755 64.5123 331.686 64.5123H355.283C353.432 67.2884 346.954 74.9999 335.541 74.9999C326.288 74.8456 300.994 74.8456 300.994 74.8456Z" fill="#D40511"/>
<path d="M382.273 64.6665L374.561 74.9998H354.357L362.069 64.6665H382.273Z" fill="#D40511"/>
<path d="M411.731 64.6665L404.02 74.9998H383.662L391.373 64.6665H411.731Z" fill="#D40511"/>
<path d="M418.364 64.6665C418.364 64.6665 416.822 66.6715 416.205 67.5969C413.583 70.9899 415.896 74.9998 424.225 74.9998H456.921L464.633 64.6665H418.364Z" fill="#D40511"/>
<path d="M311.02 44.1542L303.925 53.5622H342.483C344.487 53.5622 344.487 54.3333 343.408 55.5672C342.483 56.801 340.786 59.1144 339.861 60.3483C339.398 60.9652 338.473 62.199 341.403 62.199H357.134C357.134 62.199 359.756 58.806 361.761 55.8756C364.691 52.0199 362.07 44 351.736 44C342.483 44.1542 311.02 44.1542 311.02 44.1542Z" fill="#D40511"/>
<path d="M413.428 62.1993H363.766L377.338 44.1545H397.696L389.985 54.4879H399.085L406.796 44.1545H427.154L413.428 62.1993Z" fill="#D40511"/>
<path d="M455.223 44.1545L441.651 62.1993H420.059L433.631 44.1545H455.223Z" fill="#D40511"/>
<path d="M744 72.687H770.836L769.294 74.8462H744V72.687Z" fill="#D40511"/>
<path d="M965.32 74.8462H932.469L934.165 72.687H965.474V74.8462H965.32Z" fill="#D40511"/>
<path d="M744 68.6765H773.92L772.224 70.8357H744V68.6765Z" fill="#D40511"/>
<path d="M744 64.6665H777.005L775.308 66.8257H744V64.6665Z" fill="#D40511"/>
<path d="M965.319 70.8357H935.553L937.249 68.6765H965.473V70.8357H965.319Z" fill="#D40511"/>
<path d="M940.179 64.6665H965.318V66.8257H938.482L940.179 64.6665Z" fill="#D40511"/>
<path d="M772.994 74.8456L787.183 55.8755H804.765C806.77 55.8755 806.77 56.6466 805.691 57.8805C804.765 59.1143 803.069 61.4277 802.143 62.6616C801.681 63.4327 800.755 64.5123 803.686 64.5123H827.283C825.432 67.2884 818.954 74.9999 807.541 74.9999C798.288 74.8456 772.994 74.8456 772.994 74.8456Z" fill="#D40511"/>
<path d="M854.273 64.6665L846.561 74.9998H826.357L834.069 64.6665H854.273Z" fill="#D40511"/>
<path d="M883.731 64.6665L876.02 74.9998H855.662L863.373 64.6665H883.731Z" fill="#D40511"/>
<path d="M890.364 64.6665C890.364 64.6665 888.822 66.6715 888.205 67.5969C885.583 70.9899 887.896 74.9998 896.225 74.9998H928.921L936.633 64.6665H890.364Z" fill="#D40511"/>
<path d="M783.02 44.1542L775.925 53.5622H814.483C816.487 53.5622 816.487 54.3333 815.408 55.5672C814.483 56.801 812.786 59.1144 811.861 60.3483C811.398 60.9652 810.473 62.199 813.403 62.199H829.134C829.134 62.199 831.756 58.806 833.761 55.8756C836.691 52.0199 834.07 44 823.736 44C814.483 44.1542 783.02 44.1542 783.02 44.1542Z" fill="#D40511"/>
<path d="M885.428 62.1993H835.766L849.338 44.1545H869.696L861.985 54.4879H871.085L878.796 44.1545H899.154L885.428 62.1993Z" fill="#D40511"/>
<path d="M927.223 44.1545L913.651 62.1993H892.059L905.631 44.1545H927.223Z" fill="#D40511"/>
<path d="M1216 72.687H1242.84L1241.29 74.8462H1216V72.687Z" fill="#D40511"/>
<path d="M1437.32 74.8462H1404.47L1406.17 72.687H1437.47V74.8462H1437.32Z" fill="#D40511"/>
<path d="M1216 68.6765H1245.92L1244.22 70.8357H1216V68.6765Z" fill="#D40511"/>
<path d="M1216 64.6665H1249L1247.31 66.8257H1216V64.6665Z" fill="#D40511"/>
<path d="M1437.32 70.8357H1407.55L1409.25 68.6765H1437.47V70.8357H1437.32Z" fill="#D40511"/>
<path d="M1412.18 64.6665H1437.32V66.8257H1410.48L1412.18 64.6665Z" fill="#D40511"/>
<path d="M1244.99 74.8456L1259.18 55.8755H1276.77C1278.77 55.8755 1278.77 56.6466 1277.69 57.8805C1276.77 59.1143 1275.07 61.4277 1274.14 62.6616C1273.68 63.4327 1272.76 64.5123 1275.69 64.5123H1299.28C1297.43 67.2884 1290.95 74.9999 1279.54 74.9999C1270.29 74.8456 1244.99 74.8456 1244.99 74.8456Z" fill="#D40511"/>
<path d="M1326.27 64.6665L1318.56 74.9998H1298.36L1306.07 64.6665H1326.27Z" fill="#D40511"/>
<path d="M1355.73 64.6665L1348.02 74.9998H1327.66L1335.37 64.6665H1355.73Z" fill="#D40511"/>
<path d="M1362.36 64.6665C1362.36 64.6665 1360.82 66.6715 1360.2 67.5969C1357.58 70.9899 1359.9 74.9998 1368.22 74.9998H1400.92L1408.63 64.6665H1362.36Z" fill="#D40511"/>
<path d="M1255.02 44.1542L1247.93 53.5622H1286.48C1288.49 53.5622 1288.49 54.3333 1287.41 55.5672C1286.48 56.801 1284.79 59.1144 1283.86 60.3483C1283.4 60.9652 1282.47 62.199 1285.4 62.199H1301.13C1301.13 62.199 1303.76 58.806 1305.76 55.8756C1308.69 52.0199 1306.07 44 1295.74 44C1286.48 44.1542 1255.02 44.1542 1255.02 44.1542Z" fill="#D40511"/>
<path d="M1357.43 62.1993H1307.77L1321.34 44.1545H1341.7L1333.99 54.4879H1343.08L1350.8 44.1545H1371.15L1357.43 62.1993Z" fill="#D40511"/>
<path d="M1399.22 44.1545L1385.65 62.1993H1364.06L1377.63 44.1545H1399.22Z" fill="#D40511"/>
<defs>
<filter id="filter0_d_206_4" x="-23" y="0" width="1559" height="134" filterUnits="userSpaceOnUse" color-interpolation-filters="sRGB">
<feFlood flood-opacity="0" result="BackgroundImageFix"/>
<feColorMatrix in="SourceAlpha" type="matrix" values="0 0 0 0 0 0 0 0 0 0 0 0 0 0 0 0 0 0 127 0" result="hardAlpha"/>
<feMorphology radius="3" operator="dilate" in="SourceAlpha" result="effect1_dropShadow_206_4"/>
<feOffset dy="8"/>
<feGaussianBlur stdDeviation="10"/>
<feComposite in2="hardAlpha" operator="out"/>
<feColorMatrix type="matrix" values="0 0 0 0 0 0 0 0 0 0 0 0 0 0 0 0 0 0 0.13 0"/>
<feBlend mode="normal" in2="BackgroundImageFix" result="effect1_dropShadow_206_4"/>
<feBlend mode="normal" in="SourceGraphic" in2="effect1_dropShadow_206_4" result="shape"/>
</filter>
<linearGradient id="paint0_linear_206_4" x1="76.2541" y1="80.384" x2="103.075" y2="57.8789" gradientUnits="userSpaceOnUse">
<stop stop-color="#A90034"/>
<stop offset="0.2717" stop-color="#BB0033"/>
<stop offset="0.7226" stop-color="#D30032"/>
<stop offset="1" stop-color="#DC0032"/>
</linearGradient>
<linearGradient id="paint1_linear_206_4" x1="548.254" y1="80.384" x2="575.075" y2="57.8789" gradientUnits="userSpaceOnUse">
<stop stop-color="#A90034"/>
<stop offset="0.2717" stop-color="#BB0033"/>
<stop offset="0.7226" stop-color="#D30032"/>
<stop offset="1" stop-color="#DC0032"/>
</linearGradient>
<linearGradient id="paint2_linear_206_4" x1="1020.25" y1="80.384" x2="1047.07" y2="57.8789" gradientUnits="userSpaceOnUse">
<stop stop-color="#A90034"/>
<stop offset="0.2717" stop-color="#BB0033"/>
<stop offset="0.7226" stop-color="#D30032"/>
<stop offset="1" stop-color="#DC0032"/>
</linearGradient>
</defs>
</svg>
