<svg width="14" height="16" viewBox="0 0 14 16" fill="none" xmlns="http://www.w3.org/2000/svg">
<path d="M6.97513 15.4104C6.12712 15.4031 5.27631 15.4406 4.4339 15.3068C2.88687 15.0609 1.86635 13.9782 1.68039 12.3992C1.49948 10.8612 1.45075 9.31357 1.35105 7.76934C1.26535 6.43795 1.19141 5.106 1.11804 3.77349C1.1102 3.62731 1.05531 3.57577 0.914157 3.58474C0.784211 3.59258 0.652585 3.59258 0.522639 3.58418C0.206175 3.56401 -0.00386682 3.34221 5.39682e-05 3.04255C0.00397476 2.74233 0.216817 2.53005 0.541683 2.52836C1.54036 2.52332 2.53904 2.51996 3.53716 2.53117C3.73656 2.53341 3.8357 2.46675 3.91188 2.28864C4.06479 1.92904 4.24179 1.58009 4.40534 1.22498C4.73748 0.501878 5.29032 0.0717116 6.09016 0.0297032C6.74045 -0.00446367 7.3941 -0.0229474 8.04607 0.0526678C8.69356 0.127163 9.15509 0.468831 9.46203 1.02334C9.69616 1.44679 9.9118 1.88143 10.1157 2.32C10.1913 2.48244 10.2837 2.53117 10.4551 2.52949C11.4067 2.5222 12.3589 2.525 13.3106 2.52668C13.7273 2.52724 13.9525 2.71768 13.9485 3.05879C13.9446 3.39374 13.7105 3.58418 13.2977 3.58698C12.8406 3.59034 12.849 3.5909 12.821 4.04123C12.7157 5.75461 12.5992 7.46688 12.4984 9.18026C12.4368 10.2226 12.3752 11.2644 12.2699 12.3034C12.0884 14.0952 10.8522 15.2636 9.04475 15.3645C8.35469 15.4031 7.66519 15.4009 6.97513 15.4104ZM6.96505 3.58698C5.49028 3.58698 4.0155 3.58474 2.54072 3.58866C2.1436 3.58978 2.16153 3.50968 2.18673 3.96449C2.27859 5.61346 2.37101 7.26243 2.48023 8.91029C2.55529 10.0445 2.59113 11.1827 2.74124 12.3118C2.89247 13.4483 3.63238 14.2033 4.75205 14.2857C6.22402 14.3938 7.69936 14.3887 9.17134 14.2874C9.92581 14.2353 10.5262 13.8874 10.9088 13.2232C11.1709 12.7683 11.2197 12.2502 11.2589 11.7394C11.3311 10.8007 11.3933 9.8608 11.4527 8.92093C11.5597 7.23555 11.6582 5.54961 11.7691 3.86479C11.7837 3.64635 11.726 3.58138 11.5003 3.58306C9.9891 3.59146 8.47736 3.58698 6.96505 3.58698ZM7.01602 2.52556C7.61254 2.52556 8.20906 2.51828 8.80502 2.52949C9.01506 2.53341 9.01786 2.46675 8.93385 2.31104C8.81006 2.08196 8.69188 1.85007 8.57986 1.61482C8.40902 1.25747 8.12224 1.08496 7.73465 1.08047C7.24119 1.07487 6.74717 1.07711 6.25315 1.07991C5.85155 1.08215 5.56029 1.26083 5.39058 1.6305C5.28583 1.85847 5.18053 2.087 5.06459 2.30936C4.98001 2.47123 4.99514 2.53229 5.19902 2.52893C5.8045 2.51884 6.41054 2.52556 7.01602 2.52556Z" fill="#EB1E24"/>
<path d="M6.97569 6.99694C7.66575 6.99694 8.35636 6.9947 9.04642 6.99806C9.43122 6.99974 9.6379 7.18066 9.64294 7.50777C9.64798 7.83263 9.43794 8.055 9.07275 8.05724C7.67359 8.06564 6.27443 8.06564 4.87526 8.05724C4.51007 8.055 4.30115 7.83207 4.30675 7.50609C4.31235 7.1801 4.51959 6.99974 4.90439 6.9975C5.59501 6.99414 6.28507 6.99694 6.97569 6.99694Z" fill="#EB1E24"/>
<path d="M6.9871 9.80815C7.33157 9.80815 7.67604 9.80423 8.0205 9.80927C8.34873 9.81376 8.56325 10.0137 8.57165 10.3111C8.58062 10.6198 8.36385 10.86 8.03563 10.8645C7.32821 10.8746 6.62078 10.8746 5.91336 10.8645C5.58346 10.86 5.36781 10.622 5.37621 10.3123C5.38406 10.0154 5.59914 9.81432 5.92624 9.80983C6.27967 9.80423 6.63367 9.80815 6.9871 9.80815Z" fill="#EB1E24"/>
</svg>
