<svg width="68" height="68" viewBox="0 0 68 68" fill="none" xmlns="http://www.w3.org/2000/svg">
<circle cx="34" cy="34" r="34" fill="#EB1E24" fill-opacity="0.19"/>
<path d="M40.5277 33.793C40.5277 37.1357 40.5295 40.4784 40.5258 43.8211C40.524 44.9113 40.3895 45.0495 39.3121 45.0513C36.0615 45.055 32.8109 45.0292 29.5603 45.0716C28.8642 45.0808 28.7242 44.869 28.6763 44.2097C28.4848 41.5208 26.8641 39.7012 24.3446 39.2223C22.2082 38.8153 19.8601 40.0529 18.8784 42.0972C18.5267 42.8302 18.3572 43.6037 18.3978 44.4104C18.4254 44.9482 18.1915 45.0642 17.6924 45.0642C15.7623 45.0605 14.0366 43.4988 14.0256 41.5521C13.9906 35.5408 13.9924 29.5294 14.0256 23.5181C14.0348 21.6414 15.6278 20.0336 17.5027 20.0244C24.0039 19.9913 30.507 19.9931 37.0082 20.0226C38.9696 20.0318 40.5093 21.6709 40.5221 23.671C40.5424 27.045 40.5277 30.419 40.5277 33.793ZM28.0741 31.7929C25.7443 31.7929 23.4164 31.7966 21.0866 31.7892C20.536 31.7874 19.9522 31.8058 19.9337 32.5093C19.9153 33.2128 20.4807 33.2736 21.0443 33.2718C25.6725 33.2663 30.2989 33.2663 34.9271 33.2718C35.4796 33.2718 36.0707 33.2515 36.08 32.5498C36.0892 31.7763 35.4538 31.7874 34.8792 31.7874C32.6102 31.7966 30.3412 31.7929 28.0741 31.7929ZM30.96 27.3765C32.3376 27.3765 33.7152 27.3691 35.0946 27.3802C35.6103 27.3839 36.0634 27.2494 36.0836 26.6766C36.1076 26.0412 35.6361 25.8958 35.0799 25.8976C32.3247 25.905 29.5677 25.905 26.8125 25.8976C26.2968 25.8958 25.8438 26.0265 25.8235 26.6011C25.7996 27.2384 26.2729 27.3857 26.8254 27.382C28.2048 27.371 29.5824 27.3765 30.96 27.3765Z" fill="#EB1E24"/>
<path d="M52.3939 44.2446C51.8285 40.9038 49.8045 39.0418 46.9075 39.1708C45.1339 39.2499 43.7692 40.1063 42.8023 41.5944C42.6605 41.8118 42.5998 42.1727 42.2333 42.0843C41.841 41.9904 42.0159 41.6313 42.0159 41.3955C42.0049 36.4856 42.0159 31.5756 41.9957 26.6674C41.9938 26.0799 42.1338 25.8644 42.7526 25.8902C43.9479 25.9381 45.145 25.8921 46.3421 25.9068C48.0254 25.9271 49.4085 26.9824 49.8837 28.6012C50.0053 29.0119 50.1121 29.4281 50.1876 29.8499C50.4215 31.1704 50.7972 32.2754 52.2429 32.8942C53.3314 33.3602 53.766 34.5389 53.7826 35.7452C53.8084 37.6477 53.8047 39.5501 53.7826 41.4526C53.7679 42.5429 53.324 43.4509 52.3939 44.2446Z" fill="#EB1E24"/>
<path d="M23.5731 47.9978C21.5472 47.9923 19.9007 46.3329 19.9063 44.3033C19.9118 42.2738 21.5693 40.6291 23.5989 40.6365C25.6303 40.6439 27.2712 42.2977 27.2676 44.331C27.2639 46.3568 25.6045 48.0033 23.5731 47.9978Z" fill="#EB1E24"/>
<path d="M47.156 40.6389C49.1893 40.6389 50.8376 42.2836 50.8413 44.315C50.845 46.3427 49.1929 47.9984 47.1652 48.0002C45.1357 48.002 43.4818 46.3519 43.48 44.3223C43.4781 42.2891 45.1265 40.6371 47.156 40.6389Z" fill="#EB1E24"/>
</svg>
