<svg width="20" height="21" viewBox="0 0 20 21" fill="none" xmlns="http://www.w3.org/2000/svg">
<path d="M1 1.01855H2.61112C3.61112 1.01855 4.39815 1.87967 4.31482 2.87041L3.5463 12.0926C3.41667 13.6019 4.6111 14.8982 6.12962 14.8982H15.9908C17.3241 14.8982 18.4908 13.8056 18.5926 12.4815L19.0926 5.53708C19.2037 4.00004 18.037 2.75004 16.4908 2.75004H4.53705" stroke="#909090" stroke-width="1.5" stroke-miterlimit="10" stroke-linecap="round" stroke-linejoin="round"/>
<path d="M14.1945 19.5371C14.8338 19.5371 15.3519 19.019 15.3519 18.3797C15.3519 17.7404 14.8338 17.2223 14.1945 17.2223C13.5553 17.2223 13.0371 17.7404 13.0371 18.3797C13.0371 19.019 13.5553 19.5371 14.1945 19.5371Z" stroke="#909090" stroke-width="1.5" stroke-miterlimit="10" stroke-linecap="round" stroke-linejoin="round"/>
<path d="M6.78729 19.5371C7.42651 19.5371 7.9447 19.019 7.9447 18.3797C7.9447 17.7404 7.42651 17.2223 6.78729 17.2223C6.14807 17.2223 5.62988 17.7404 5.62988 18.3797C5.62988 19.019 6.14807 19.5371 6.78729 19.5371Z" stroke="#909090" stroke-width="1.5" stroke-miterlimit="10" stroke-linecap="round" stroke-linejoin="round"/>
<path d="M7.48145 6.5741H18.5926" stroke="#909090" stroke-width="1.5" stroke-miterlimit="10" stroke-linecap="round" stroke-linejoin="round"/>
</svg>
