<svg width="11" height="7" viewBox="0 0 11 7" fill="none" xmlns="http://www.w3.org/2000/svg">
<mask id="path-1-inside-1_95_34" fill="white">
<path fill-rule="evenodd" clip-rule="evenodd" d="M5.84086 5.86581C5.74711 5.95944 5.62003 6.01203 5.48753 6.01203C5.35503 6.01203 5.22794 5.95944 5.13419 5.86581L0.134195 0.865805C0.0458745 0.771022 -0.00220758 0.645658 7.7898e-05 0.516124C0.00236338 0.38659 0.054838 0.262999 0.146447 0.171391C0.238055 0.0797821 0.361645 0.0273076 0.491179 0.0250221C0.620714 0.0227366 0.746078 0.0708186 0.840861 0.159139L5.48753 4.80581L10.1342 0.159139C10.18 0.110014 10.2352 0.0706126 10.2965 0.0432847C10.3578 0.0159567 10.424 0.00126234 10.4912 7.7815e-05C10.5583 -0.00110671 10.625 0.0112429 10.6873 0.0363902C10.7495 0.0615376 10.8061 0.0989673 10.8536 0.146446C10.901 0.193926 10.9385 0.250482 10.9636 0.31274C10.9888 0.374999 11.0011 0.441685 10.9999 0.50882C10.9987 0.575955 10.984 0.642165 10.9567 0.703498C10.9294 0.76483 10.89 0.820031 10.8409 0.865805L5.84086 5.86581Z"/>
</mask>
<path fill-rule="evenodd" clip-rule="evenodd" d="M5.84086 5.86581C5.74711 5.95944 5.62003 6.01203 5.48753 6.01203C5.35503 6.01203 5.22794 5.95944 5.13419 5.86581L0.134195 0.865805C0.0458745 0.771022 -0.00220758 0.645658 7.7898e-05 0.516124C0.00236338 0.38659 0.054838 0.262999 0.146447 0.171391C0.238055 0.0797821 0.361645 0.0273076 0.491179 0.0250221C0.620714 0.0227366 0.746078 0.0708186 0.840861 0.159139L5.48753 4.80581L10.1342 0.159139C10.18 0.110014 10.2352 0.0706126 10.2965 0.0432847C10.3578 0.0159567 10.424 0.00126234 10.4912 7.7815e-05C10.5583 -0.00110671 10.625 0.0112429 10.6873 0.0363902C10.7495 0.0615376 10.8061 0.0989673 10.8536 0.146446C10.901 0.193926 10.9385 0.250482 10.9636 0.31274C10.9888 0.374999 11.0011 0.441685 10.9999 0.50882C10.9987 0.575955 10.984 0.642165 10.9567 0.703498C10.9294 0.76483 10.89 0.820031 10.8409 0.865805L5.84086 5.86581Z" fill="white"/>
<path d="M5.84086 5.86581L6.54753 6.57335L6.54797 6.57291L5.84086 5.86581ZM5.13419 5.86581L4.42709 6.57291L4.42753 6.57335L5.13419 5.86581ZM0.134195 0.865805L-0.597417 1.54753L-0.585388 1.56044L-0.572912 1.57291L0.134195 0.865805ZM0.840861 0.159139L1.54797 -0.547968L1.53549 -0.560444L1.52258 -0.572472L0.840861 0.159139ZM5.48753 4.80581L4.78042 5.51291L5.48753 6.22002L6.19463 5.51291L5.48753 4.80581ZM10.1342 0.159139L10.8413 0.866245L10.8538 0.853769L10.8658 0.840861L10.1342 0.159139ZM10.8409 0.865805L10.1591 0.134194L10.1462 0.146222L10.1338 0.158698L10.8409 0.865805ZM5.13419 5.15826C5.22795 5.06462 5.35503 5.01203 5.48753 5.01203V7.01203C5.88503 7.01203 6.26628 6.85426 6.54753 6.57335L5.13419 5.15826ZM5.48753 5.01203C5.62003 5.01203 5.74711 5.06462 5.84086 5.15826L4.42753 6.57335C4.70878 6.85426 5.09003 7.01203 5.48753 7.01203V5.01203ZM5.8413 5.1587L0.841301 0.158699L-0.572912 1.57291L4.42709 6.57291L5.8413 5.1587ZM0.865806 0.184083C0.954125 0.278866 1.00221 0.40423 0.999922 0.533765L-0.999766 0.498483C-1.00662 0.887086 -0.862376 1.26318 -0.597417 1.54753L0.865806 0.184083ZM0.999922 0.533765C0.997637 0.663298 0.945163 0.786888 0.853553 0.878498L-0.56066 -0.535716C-0.835487 -0.260889 -0.99291 0.109881 -0.999766 0.498483L0.999922 0.533765ZM0.853553 0.878498C0.761945 0.970107 0.638354 1.02258 0.508821 1.02487L0.473538 -0.974822C0.0849366 -0.967966 -0.285834 -0.810542 -0.56066 -0.535716L0.853553 0.878498ZM0.508821 1.02487C0.379288 1.02715 0.253923 0.979071 0.159139 0.89075L1.52258 -0.572472C1.23823 -0.837433 0.862139 -0.981679 0.473538 -0.974822L0.508821 1.02487ZM0.133755 0.866245L4.78042 5.51291L6.19463 4.0987L1.54797 -0.547968L0.133755 0.866245ZM6.19463 5.51291L10.8413 0.866245L9.42709 -0.547968L4.78042 4.0987L6.19463 5.51291ZM10.8658 0.840861C10.82 0.889985 10.7648 0.929387 10.7035 0.956715L9.88951 -0.870146C9.70551 -0.788161 9.53991 -0.669957 9.40258 -0.522584L10.8658 0.840861ZM10.7035 0.956715C10.6422 0.984045 10.576 0.998738 10.5088 0.999922L10.4735 -0.999767C10.2721 -0.996213 10.0735 -0.952131 9.88951 -0.870146L10.7035 0.956715ZM10.5088 0.999922C10.4417 1.00111 10.375 0.988757 10.3127 0.963609L11.0618 -0.890829C10.875 -0.966272 10.6749 -1.00332 10.4735 -0.999767L10.5088 0.999922ZM10.3127 0.963609C10.2505 0.938463 10.1939 0.901033 10.1464 0.853553L11.5607 -0.56066C11.4182 -0.703099 11.2486 -0.815387 11.0618 -0.890829L10.3127 0.963609ZM10.1464 0.853553C10.099 0.806076 10.0615 0.749521 10.0364 0.687259L11.8908 -0.0617788C11.8154 -0.248558 11.7031 -0.418225 11.5607 -0.56066L10.1464 0.853553ZM10.0364 0.687259C10.0112 0.624996 9.99889 0.55831 10.0001 0.491179L11.9998 0.526461C12.0033 0.32506 11.9663 0.125002 11.8908 -0.0617788L10.0364 0.687259ZM10.0001 0.491179C10.0013 0.42405 10.016 0.35784 10.0433 0.296502L11.8701 1.11049C11.9521 0.926489 11.9962 0.727861 11.9998 0.526461L10.0001 0.491179ZM10.0433 0.296502C10.0706 0.235171 10.11 0.17997 10.1591 0.134194L11.5226 1.59742C11.67 1.46009 11.7882 1.29449 11.8701 1.11049L10.0433 0.296502ZM10.1338 0.158698L5.13375 5.1587L6.54797 6.57291L11.548 1.57291L10.1338 0.158698Z" fill="white" mask="url(#path-1-inside-1_95_34)"/>
</svg>
