<svg width="19" height="22" viewBox="0 0 19 22" fill="none" xmlns="http://www.w3.org/2000/svg">
<path d="M11.7693 18.0513C11.7693 18.6445 11.3779 19.4224 10.8791 19.7238L9.50002 20.6086C8.21867 21.3963 6.43842 20.5114 6.43842 18.9362V13.734C6.43842 13.0436 6.04717 12.1587 5.64613 11.6725L1.89007 7.74416C1.39122 7.24825 1 6.37313 1 5.77998V3.52407C1 2.3475 1.89012 1.46265 2.97585 1.46265H16.0241C17.1098 1.46265 18 2.3475 18 3.42683V5.5855C18 6.37312 17.5012 7.35522 17.0121 7.84141" stroke="#F8FAFC" stroke-width="1.5" stroke-miterlimit="10" stroke-linecap="round" stroke-linejoin="round"/>
<path d="M13.4811 15.5716C15.2098 15.5716 16.6111 14.1785 16.6111 12.46C16.6111 10.7416 15.2098 9.34845 13.4811 9.34845C11.7524 9.34845 10.3511 10.7416 10.3511 12.46C10.3511 14.1785 11.7524 15.5716 13.4811 15.5716Z" stroke="#F8FAFC" stroke-width="1.5" stroke-linecap="round" stroke-linejoin="round"/>
<path d="M17.1979 16.1551L16.2197 15.1827" stroke="#F8FAFC" stroke-width="1.5" stroke-linecap="round" stroke-linejoin="round"/>
</svg>
