<svg width="68" height="68" viewBox="0 0 68 68" fill="none" xmlns="http://www.w3.org/2000/svg">
<circle cx="34" cy="34" r="34" fill="#EB1E24" fill-opacity="0.19"/>
<path d="M37.7013 31.3519C37.2819 32.5825 38.0897 33.3713 39.212 34.0193C39.6313 34.2616 40.0249 34.5572 40.3995 34.8665C41.209 35.5385 41.3534 36.6006 40.7708 37.3964C40.226 38.1405 39.2704 38.3347 38.3973 37.7573C37.1565 36.9375 35.9586 36.0541 34.7659 35.1639C34.1231 34.6844 34.087 33.9643 34.099 33.2201C34.1093 32.6443 34.4256 31.8246 33.9426 31.5582C33.5955 31.3674 33.0318 32.0944 32.5815 32.4312C31.2977 33.3902 30.0379 34.3819 28.7524 35.3392C28.3983 35.6021 28.1972 35.8891 28.2488 36.3411C28.6252 39.6134 27.7057 42.6073 26.3102 45.5083C25.8891 46.3831 25.5952 47.3163 25.2137 48.2117C24.6534 49.5265 23.4865 50.0747 22.3195 49.5987C21.1371 49.1175 20.692 47.9144 21.2196 46.5911C21.9637 44.7332 22.6942 42.8702 23.4761 41.0278C23.7855 40.2974 23.9178 39.5687 23.9161 38.7816C23.9092 36.5766 23.9591 34.3716 23.9539 32.1666C23.9522 31.2093 24.2959 30.4823 25.0418 29.8636C27.0423 28.1965 28.9998 26.4779 30.9831 24.7902C32.688 23.3397 34.2571 23.5253 35.6011 25.3161C37.3696 27.6741 37.6841 28.5471 37.7013 31.3519Z" fill="#EB1E24"/>
<path d="M47.9942 35.9353C47.9942 37.0232 47.977 38.1111 47.9994 39.1973C48.0166 39.9861 47.6522 40.3832 46.8806 40.3866C44.648 40.3952 42.4173 40.3883 40.1848 40.3883C39.8892 40.3883 39.6193 40.3144 39.4011 40.0996C39.2739 39.9741 39.1725 39.8315 39.1931 39.651C39.2206 39.4052 39.4337 39.4671 39.5901 39.4413C41.0595 39.2076 42.0838 38.4256 42.4069 36.9459C42.7301 35.4661 42.1388 34.3232 40.8911 33.4949C40.4391 33.1941 40.006 32.8658 39.5695 32.541C39.4165 32.4276 39.1811 32.3503 39.2258 32.0993C39.2756 31.8192 39.4887 31.6491 39.7448 31.5803C39.9613 31.5219 40.1968 31.515 40.4236 31.515C42.5118 31.5098 44.6016 31.5064 46.6898 31.515C47.7416 31.5184 47.9908 31.778 47.9959 32.8452C47.9994 33.8747 47.9942 34.9059 47.9942 35.9353Z" fill="#EB1E24"/>
<path d="M36.2629 47.4608C36.2319 48.6638 35.431 49.5661 34.3689 49.7363C33.3515 49.8995 32.3186 49.2327 31.9714 48.0864C31.4919 46.5018 31.0949 44.8931 30.6361 43.3017C30.3697 42.3788 30.2734 41.3974 29.696 40.5725C29.5808 40.4075 29.6014 40.1343 29.598 39.9091C29.5911 39.1082 29.6994 38.2936 29.5808 37.5116C29.4158 36.4203 30.1428 36.0095 30.832 35.5077C31.107 35.3083 31.2479 35.4613 31.3854 35.6572C32.7053 37.5322 34.2967 39.2217 34.6955 41.6552C34.9704 43.3326 35.5926 44.9533 36.0549 46.6015C36.1477 46.9297 36.2165 47.2649 36.2629 47.4608Z" fill="#EB1E24"/>
<path d="M40.0352 26.7442C37.8869 26.7373 36.1631 25.0101 36.1699 22.8755C36.1785 20.7479 37.9229 19.0052 40.0437 19C42.2247 18.9949 43.9639 20.7513 43.933 22.9254C43.9021 25.0977 42.2144 26.7511 40.0352 26.7442Z" fill="#EB1E24"/>
<path d="M42.9085 47.2182C42.9085 46.8195 42.8793 46.4173 42.9136 46.0203C42.9704 45.3638 42.8793 44.9428 42.0371 44.9737C41.4184 44.996 41.2466 44.4993 41.5439 44.0181C41.9907 43.2929 42.5098 42.6054 43.0477 41.942C43.3863 41.5227 43.8125 41.5811 44.1304 41.9987C44.5962 42.6106 45.0499 43.2344 45.471 43.8789C45.8731 44.4959 45.6531 44.9702 44.9193 44.9479C44.2129 44.9256 44.1304 45.2366 44.1511 45.8141C44.1854 46.8109 44.1614 47.8112 44.1596 48.8097C44.1579 49.2703 44.0668 49.7257 43.5014 49.7154C42.9858 49.7068 42.905 49.2771 42.9085 48.844C42.9119 48.301 42.9085 47.7596 42.9085 47.2182Z" fill="#EB1E24"/>
</svg>
