<svg width="27" height="31" viewBox="0 0 27 31" fill="none" xmlns="http://www.w3.org/2000/svg">
<path d="M16.7013 12.3519C16.2819 13.5825 17.0897 14.3713 18.212 15.0193C18.6313 15.2616 19.0249 15.5572 19.3995 15.8665C20.209 16.5385 20.3534 17.6006 19.7708 18.3964C19.226 19.1405 18.2704 19.3347 17.3973 18.7573C16.1565 17.9375 14.9586 17.0541 13.7659 16.1639C13.1231 15.6844 13.087 14.9643 13.099 14.2201C13.1093 13.6443 13.4256 12.8246 12.9426 12.5582C12.5955 12.3674 12.0318 13.0944 11.5815 13.4312C10.2977 14.3902 9.03789 15.3819 7.75235 16.3392C7.39832 16.6021 7.19724 16.8891 7.24879 17.3411C7.62517 20.6134 6.70571 23.6073 5.31018 26.5083C4.88911 27.3831 4.59522 28.3163 4.21369 29.2117C3.65341 30.5265 2.48646 31.0747 1.31951 30.5987C0.137087 30.1175 -0.308039 28.9144 0.219581 27.5911C0.96375 25.7332 1.69417 23.8702 2.47615 22.0278C2.7855 21.2974 2.91784 20.5687 2.91612 19.7816C2.90924 17.5766 2.95908 15.3716 2.95393 13.1666C2.95221 12.2093 3.29594 11.4823 4.04182 10.8636C6.04231 9.19652 7.99984 7.47789 9.98314 5.79019C11.688 4.33966 13.2571 4.52527 14.6011 6.31609C16.3696 8.67406 16.6841 9.54712 16.7013 12.3519Z" fill="#EB1E24"/>
<path d="M26.9942 16.9353C26.9942 18.0232 26.977 19.1111 26.9994 20.1973C27.0166 20.9861 26.6522 21.3832 25.8806 21.3866C23.648 21.3952 21.4173 21.3883 19.1848 21.3883C18.8892 21.3883 18.6193 21.3144 18.4011 21.0996C18.2739 20.9741 18.1725 20.8315 18.1931 20.651C18.2206 20.4052 18.4337 20.4671 18.5901 20.4413C20.0595 20.2076 21.0838 19.4256 21.4069 17.9459C21.7301 16.4661 21.1388 15.3232 19.8911 14.4949C19.4391 14.1941 19.006 13.8658 18.5695 13.541C18.4165 13.4276 18.1811 13.3503 18.2258 13.0993C18.2756 12.8192 18.4887 12.6491 18.7448 12.5803C18.9613 12.5219 19.1968 12.515 19.4236 12.515C21.5118 12.5098 23.6016 12.5064 25.6898 12.515C26.7416 12.5184 26.9908 12.778 26.9959 13.8452C26.9994 14.8747 26.9942 15.9059 26.9942 16.9353Z" fill="#EB1E24"/>
<path d="M15.2629 28.4608C15.2319 29.6638 14.431 30.5661 13.3689 30.7363C12.3515 30.8995 11.3186 30.2327 10.9714 29.0864C10.4919 27.5018 10.0949 25.8931 9.63605 24.3017C9.36967 23.3788 9.27342 22.3974 8.69596 21.5725C8.58081 21.4075 8.60144 21.1343 8.598 20.9091C8.59112 20.1082 8.6994 19.2936 8.58081 18.5116C8.41582 17.4203 9.14281 17.0095 9.83198 16.5077C10.107 16.3083 10.2479 16.4613 10.3854 16.6572C11.7053 18.5322 13.2967 20.2217 13.6955 22.6552C13.9704 24.3326 14.5926 25.9533 15.0549 27.6015C15.1477 27.9297 15.2165 28.2649 15.2629 28.4608Z" fill="#EB1E24"/>
<path d="M19.0352 7.74418C16.8869 7.7373 15.1631 6.01007 15.1699 3.87553C15.1785 1.74786 16.9229 0.00516722 19.0437 1.1322e-05C21.2247 -0.00514458 22.9639 1.7513 22.933 3.92537C22.9021 6.09773 21.2144 7.75105 19.0352 7.74418Z" fill="#EB1E24"/>
<path d="M21.9085 28.2182C21.9085 27.8195 21.8793 27.4173 21.9136 27.0203C21.9704 26.3638 21.8793 25.9428 21.0371 25.9737C20.4184 25.996 20.2466 25.4993 20.5439 25.0181C20.9907 24.2929 21.5098 23.6054 22.0477 22.942C22.3863 22.5227 22.8125 22.5811 23.1304 22.9987C23.5962 23.6106 24.0499 24.2344 24.471 24.8789C24.8731 25.4959 24.6531 25.9702 23.9193 25.9479C23.2129 25.9256 23.1304 26.2366 23.1511 26.8141C23.1854 27.8109 23.1614 28.8112 23.1596 29.8097C23.1579 30.2703 23.0668 30.7257 22.5014 30.7154C21.9858 30.7068 21.905 30.2771 21.9085 29.844C21.9119 29.301 21.9085 28.7596 21.9085 28.2182Z" fill="#EB1E24"/>
</svg>
