<svg width="41" height="41" viewBox="0 0 41 41" fill="none" xmlns="http://www.w3.org/2000/svg">
<circle cx="20.5" cy="20.5" r="20.5" fill="#211F20" fill-opacity="0.1"/>
<path fill-rule="evenodd" clip-rule="evenodd" d="M17.1459 20.8409C17.0523 20.7471 16.9997 20.62 16.9997 20.4875C16.9997 20.355 17.0523 20.2279 17.1459 20.1342L22.1459 15.1342C22.2407 15.0459 22.3661 14.9978 22.4956 15.0001C22.6251 15.0024 22.7487 15.0548 22.8403 15.1464C22.9319 15.2381 22.9844 15.3616 22.9867 15.4912C22.989 15.6207 22.9409 15.7461 22.8526 15.8409L18.2059 20.4875L22.8526 25.1342C22.9017 25.18 22.9411 25.2352 22.9684 25.2965C22.9958 25.3578 23.0105 25.424 23.0116 25.4912C23.0128 25.5583 23.0005 25.625 22.9753 25.6873C22.9502 25.7495 22.9128 25.8061 22.8653 25.8536C22.8178 25.901 22.7612 25.9385 22.699 25.9636C22.6367 25.9888 22.57 26.0011 22.5029 25.9999C22.4358 25.9987 22.3696 25.984 22.3082 25.9567C22.2469 25.9294 22.1917 25.89 22.1459 25.8409L17.1459 20.8409Z" fill="#211F20" stroke="#211F20"/>
</svg>
