<svg width="270" height="253" viewBox="0 0 270 253" fill="none" xmlns="http://www.w3.org/2000/svg">
<path d="M268.169 81.3678L192.396 50.2136L87.4697 135.927L87.8524 139.784L99.078 177.212L163.727 170.98L268.552 85.2247L268.169 81.3678ZM116.273 155.211C116.757 154.2 117.459 153.314 118.32 152.626C120.329 151.163 122.616 150.199 124.997 149.812C127.379 149.426 129.788 149.628 132.03 150.402C132.992 150.769 133.842 151.386 134.501 152.196C134.037 153.201 133.344 154.08 132.486 154.751C130.484 156.225 128.199 157.196 125.818 157.587C123.437 157.978 121.027 157.777 118.786 157.001C117.82 156.644 116.968 156.033 116.307 155.225L116.273 155.211Z" fill="#EB1E24"/>
<path d="M268.169 81.3679L192.396 50.2137L87.4699 135.928L98.6955 173.356L163.361 167.13L268.169 81.3679ZM131.614 146.531C135.622 148.179 136.013 151.871 132.486 154.751C130.484 156.225 128.199 157.196 125.818 157.587C123.437 157.978 121.027 157.777 118.786 157.001C114.745 155.339 114.346 151.665 117.921 148.763C119.931 147.294 122.221 146.328 124.607 145.943C126.992 145.557 129.404 145.764 131.648 146.545L131.614 146.531Z" fill="#EB1E24"/>
<g opacity="0.3">
<path d="M131.648 146.545C129.408 145.772 127.001 145.571 124.622 145.958C122.243 146.346 119.959 147.312 117.954 148.777C115.373 150.889 114.865 153.371 116.307 155.225C116.785 154.211 117.488 153.323 118.354 152.64C120.362 151.174 122.65 150.207 125.033 149.817C127.416 149.428 129.826 149.626 132.071 150.398C133.029 150.766 133.871 151.387 134.518 152.202C134.732 151.746 134.855 151.253 134.881 150.754C134.906 150.254 134.834 149.76 134.668 149.3C134.372 148.646 133.953 148.066 133.435 147.593C132.916 147.12 132.309 146.764 131.648 146.545Z" fill="#211F20"/>
</g>
<g opacity="0.3">
<path d="M268.203 81.3817L268.619 85.2525L163.693 170.966L163.277 167.096L268.203 81.3817Z" fill="white"/>
</g>
<g opacity="0.15">
<path d="M163.277 167.095L98.6282 173.328L99.0278 177.192L163.694 170.966L163.277 167.095Z" fill="#211F20"/>
</g>
<g opacity="0.3">
<path d="M98.6279 173.328L87.4023 135.9L87.8187 139.771L99.0274 177.192L98.6279 173.328Z" fill="#211F20"/>
</g>
<path d="M189.327 100.767C189.976 103.626 192.722 106.044 197.565 108.022C200.683 109.33 204.005 110.093 207.404 110.28C210.541 110.456 213.709 110.082 216.776 109.173C219.498 108.347 222.065 106.982 224.334 105.154C226.198 103.825 227.6 101.886 228.305 99.6614C228.546 98.6826 228.552 97.6678 228.325 96.7083C228.098 95.7488 227.643 94.8747 227.002 94.1648C225.117 92.0474 222.751 90.4615 220.104 89.5418C215.543 87.5914 210.543 86.8637 205.542 87.4225C201.134 87.8237 196.872 89.5455 193.267 92.3813C190.003 95.1172 188.69 97.9125 189.327 100.767ZM205.461 95.0406C207.567 95.21 209.616 95.7402 211.528 96.6102C213.246 97.1451 214.802 98.1014 216.069 99.4022C216.21 99.552 216.315 99.7343 216.378 99.9359C216.44 100.138 216.458 100.353 216.43 100.567C216.403 100.782 216.33 100.989 216.217 101.174C216.105 101.359 215.956 101.517 215.78 101.638C214.712 102.34 213.466 102.657 212.241 102.537C210.135 102.367 208.086 101.837 206.174 100.967C204.456 100.432 202.901 99.4759 201.633 98.1752C201.492 98.0253 201.387 97.843 201.325 97.6414C201.262 97.4398 201.244 97.224 201.272 97.0098C201.3 96.7956 201.372 96.5884 201.485 96.4033C201.597 96.2182 201.747 96.0598 201.922 95.9398C202.99 95.2373 204.237 94.9206 205.461 95.0406ZM149.875 124.905C153.012 125.081 156.18 124.707 159.248 123.798C161.969 122.97 164.535 121.606 166.806 119.779C168.657 118.436 170.05 116.498 170.76 114.279C171.003 113.303 171.012 112.29 170.788 111.332C170.563 110.373 170.112 109.5 169.474 108.79C167.58 106.672 165.209 105.085 162.558 104.16C158.003 102.209 153.009 101.484 148.013 102.047C143.6 102.44 139.331 104.16 135.722 106.999C132.401 109.712 131.068 112.492 131.722 115.339C132.375 118.187 135.124 120.613 139.969 122.619C143.109 123.936 146.453 124.708 149.875 124.905ZM144.145 112.796C143.999 112.652 143.888 112.472 143.82 112.272C143.753 112.072 143.731 111.856 143.757 111.641C143.783 111.426 143.855 111.217 143.968 111.032C144.081 110.847 144.233 110.689 144.41 110.572C145.479 109.853 146.737 109.537 147.966 109.679C150.068 109.835 152.114 110.364 154.016 111.242C155.739 111.767 157.296 112.725 158.558 114.034C158.698 114.184 158.803 114.366 158.866 114.568C158.928 114.769 158.946 114.985 158.919 115.199C158.891 115.414 158.818 115.621 158.706 115.806C158.593 115.991 158.444 116.149 158.268 116.269C157.207 116.983 155.957 117.295 154.737 117.151C152.633 117.001 150.585 116.479 148.679 115.606C146.989 115.077 145.463 114.125 144.23 112.831L144.145 112.796ZM197.424 126.462L170.691 79.7358L163.092 86.0077L189.809 132.727L197.424 126.462Z" fill="#FAFAFA"/>
<path d="M1.63886 166.915L1.82368 166.466C2.12127 166.047 2.5598 165.763 3.04299 165.673C3.52619 165.584 4.01454 165.699 4.4008 165.991C54.1215 203.775 120.184 155.18 122.973 153.089C123.173 152.924 123.402 152.801 123.645 152.729C123.888 152.657 124.14 152.637 124.386 152.67C124.632 152.703 124.867 152.789 125.075 152.922C125.284 153.055 125.463 153.232 125.601 153.443C125.74 153.654 125.834 153.895 125.878 154.15C125.923 154.405 125.917 154.669 125.861 154.926C125.805 155.184 125.7 155.429 125.553 155.647C125.405 155.865 125.218 156.051 125.003 156.194C98.8366 175.789 43.5477 200.479 2.15097 169.165C1.83907 168.912 1.61998 168.555 1.52743 168.148C1.43489 167.742 1.47405 167.308 1.63886 166.915Z" fill="#211F20"/>
</svg>
