<svg width="40" height="28" viewBox="0 0 40 28" fill="none" xmlns="http://www.w3.org/2000/svg">
<path d="M26.5277 13.793C26.5277 17.1357 26.5295 20.4784 26.5258 23.8211C26.524 24.9113 26.3895 25.0495 25.3121 25.0513C22.0615 25.055 18.8109 25.0292 15.5603 25.0716C14.8642 25.0808 14.7242 24.869 14.6763 24.2097C14.4848 21.5208 12.8641 19.7012 10.3446 19.2223C8.20825 18.8153 5.86007 20.0529 4.87845 22.0972C4.52668 22.8302 4.35724 23.6037 4.39776 24.4104C4.42539 24.9482 4.19149 25.0642 3.69239 25.0642C1.76228 25.0605 0.0366085 23.4988 0.0255583 21.5521C-0.00943406 15.5408 -0.00759236 9.52944 0.0255583 3.51811C0.0347668 1.64142 1.62784 0.0336111 3.50269 0.0244026C10.0039 -0.00874809 16.507 -0.00690639 23.0082 0.0225609C24.9696 0.0317694 26.5093 1.67089 26.5221 3.67098C26.5424 7.04498 26.5277 10.419 26.5277 13.793ZM14.0741 11.7929C11.7443 11.7929 9.4164 11.7966 7.08665 11.7892C6.53598 11.7874 5.95216 11.8058 5.93374 12.5093C5.91533 13.2128 6.48073 13.2736 7.04429 13.2718C11.6725 13.2663 16.2989 13.2663 20.9271 13.2718C21.4796 13.2718 22.0707 13.2515 22.08 12.5498C22.0892 11.7763 21.4538 11.7874 20.8792 11.7874C18.6102 11.7966 16.3412 11.7929 14.0741 11.7929ZM16.96 7.37648C18.3376 7.37648 19.7152 7.36912 21.0946 7.38017C21.6103 7.38385 22.0634 7.24941 22.0836 6.67664C22.1076 6.04125 21.6361 5.89575 21.0799 5.8976C18.3247 5.90496 15.5677 5.90496 12.8125 5.8976C12.2968 5.89575 11.8438 6.02651 11.8235 6.60113C11.7996 7.23836 12.2729 7.38569 12.8254 7.38201C14.2048 7.37096 15.5824 7.37648 16.96 7.37648Z" fill="#EB1E24"/>
<path d="M38.3939 24.2446C37.8285 20.9038 35.8045 19.0418 32.9075 19.1708C31.1339 19.2499 29.7692 20.1063 28.8023 21.5944C28.6605 21.8118 28.5998 22.1727 28.2333 22.0843C27.841 21.9904 28.0159 21.6313 28.0159 21.3955C28.0049 16.4856 28.0159 11.5756 27.9957 6.66743C27.9938 6.07993 28.1338 5.86445 28.7526 5.89023C29.9479 5.93812 31.145 5.89207 32.3421 5.90681C34.0254 5.92706 35.4085 6.98236 35.8837 8.60122C36.0053 9.01192 36.1121 9.42814 36.1876 9.84989C36.4215 11.1704 36.7972 12.2754 38.2429 12.8942C39.3314 13.3602 39.766 14.5389 39.7826 15.7452C39.8084 17.6477 39.8047 19.5501 39.7826 21.4526C39.7679 22.5429 39.324 23.4509 38.3939 24.2446Z" fill="#EB1E24"/>
<path d="M9.5731 27.9978C7.54722 27.9923 5.90074 26.3329 5.90626 24.3033C5.91179 22.2738 7.56932 20.6291 9.59888 20.6365C11.6303 20.6439 13.2712 22.2977 13.2676 24.331C13.2639 26.3568 11.6045 28.0033 9.5731 27.9978Z" fill="#EB1E24"/>
<path d="M33.156 20.6389C35.1893 20.6389 36.8376 22.2836 36.8413 24.315C36.845 26.3427 35.1929 27.9984 33.1652 28.0002C31.1357 28.002 29.4818 26.3519 29.48 24.3223C29.4781 22.2891 31.1265 20.6371 33.156 20.6389Z" fill="#EB1E24"/>
</svg>
