<svg width="41" height="41" viewBox="0 0 41 41" fill="none" xmlns="http://www.w3.org/2000/svg">
<circle cx="20.5" cy="20.5" r="20.5" transform="rotate(180 20.5 20.5)" fill="#211F20" fill-opacity="0.1"/>
<path fill-rule="evenodd" clip-rule="evenodd" d="M23.8541 20.1591C23.9477 20.2529 24.0003 20.38 24.0003 20.5125C24.0003 20.645 23.9477 20.7721 23.8541 20.8658L18.8541 25.8658C18.7593 25.9541 18.6339 26.0022 18.5044 25.9999C18.3749 25.9976 18.2513 25.9452 18.1597 25.8536C18.0681 25.7619 18.0156 25.6384 18.0133 25.5088C18.011 25.3793 18.0591 25.2539 18.1474 25.1591L22.7941 20.5125L18.1474 15.8658C18.0983 15.82 18.0589 15.7648 18.0316 15.7035C18.0042 15.6422 17.9895 15.576 17.9884 15.5088C17.9872 15.4417 17.9995 15.375 18.0247 15.3127C18.0498 15.2505 18.0872 15.1939 18.1347 15.1464C18.1822 15.099 18.2388 15.0615 18.301 15.0364C18.3633 15.0112 18.43 14.9989 18.4971 15.0001C18.5642 15.0013 18.6304 15.016 18.6918 15.0433C18.7531 15.0706 18.8083 15.11 18.8541 15.1591L23.8541 20.1591Z" fill="#211F20" stroke="#211F20"/>
</svg>
