<svg width="41" height="41" viewBox="0 0 41 41" fill="none" xmlns="http://www.w3.org/2000/svg">
<circle cx="20.5" cy="20.5" r="20.5" fill="#EB1E24"/>
<path d="M28.1501 12.8388L28.2473 12.8333L28.3665 12.8406L28.449 12.8553L28.5617 12.8874L28.6598 12.9296L28.7515 12.9818L28.834 13.0432L28.9091 13.112L28.9568 13.1661L29.032 13.2724L29.0796 13.3604C29.1224 13.4521 29.1499 13.5486 29.1621 13.6501L29.1667 13.7472C29.1667 13.8163 29.1594 13.8835 29.1447 13.9489L29.1126 14.0616L23.125 30.6322C23.0114 30.8793 22.8294 31.0887 22.6005 31.2354C22.3715 31.3821 22.1053 31.4601 21.8334 31.46C21.5885 31.4605 21.3477 31.3977 21.1342 31.2777C20.9208 31.1578 20.742 30.9847 20.6151 30.7752L20.5555 30.6588L17.4829 24.5153L11.3687 21.4573C11.1425 21.3538 10.9474 21.1928 10.8029 20.9903C10.6585 20.7877 10.5697 20.5508 10.5455 20.3032L10.54 20.1666C10.54 19.6533 10.816 19.184 11.311 18.9108L11.4393 18.8466L27.9549 12.8828L28.052 12.8553L28.1501 12.8388Z" fill="white"/>
</svg>
